Coordinates
version=1
nRows=24
nColumns=22
inDegrees=yes

Units are S.I. units (second, meters, Newtons, ...)
If the header above contains a line with 'inDegrees', this indicates whether rotational values are in degrees (yes) or radians (no).

endheader
time	pelvis_tilt	pelvis_list	pelvis_rotation	pelvis_tx	pelvis_ty	pelvis_tz	hip_flexion_r	hip_adduction_r	hip_rotation_r	knee_angle_r	ankle_angle_r	subtalar_angle_r	hip_flexion_l	hip_adduction_l	hip_rotation_l	knee_angle_l	ankle_angle_l	subtalar_angle_l	lumbar_extension	lumbar_bending	lumbar_rotation
      0.01000000	    -13.13898721	     -1.83691879	     -3.97186841	     -0.78551600	      0.97842132	      0.23672775	     16.72930642	      2.94751632	     -3.07348267	    -16.07887584	     17.66330515	     -3.52960843	     16.46125873	     -1.43615573	     -6.72596893	    -16.06929385	     19.70374958	     -2.47990502	      7.34464455	      3.82826789	      4.70172283
      0.02000000	    -13.12987208	     -1.84179549	     -3.95924965	     -0.78553759	      0.97842632	      0.23673060	     16.72259268	      2.95042268	     -3.07188017	    -16.08550191	     17.65960181	     -3.52824192	     16.45736485	     -1.44016358	     -6.72552093	    -16.07564199	     19.70440681	     -2.48041437	      7.36039425	      3.82356998	      4.70516432
      0.03000000	    -13.11929461	     -1.84816476	     -3.94209884	     -0.78558282	      0.97843405	      0.23673858	     16.71509591	      2.95501282	     -3.07137295	    -16.09178551	     17.65659044	     -3.52719894	     16.45457393	     -1.44531153	     -6.72244474	    -16.08268848	     19.70529165	     -2.48095468	      7.37749725	      3.81456230	      4.71007086
      0.04000000	    -13.11766241	     -1.89233972	     -3.86139592	     -0.78570203	      0.97841873	      0.23666412	     16.70286399	      2.98184762	     -3.15175642	    -16.06980561	     17.63081605	     -3.52022315	     16.49646546	     -1.47310934	     -6.61429902	    -16.13818820	     19.73125954	     -2.48903060	      7.40010743	      3.83436114	      4.65153331
      0.05000000	    -13.10476720	     -1.90000797	     -3.84101828	     -0.78579652	      0.97842637	      0.23667755	     16.69770730	      2.98870829	     -3.14971870	    -16.07927224	     17.63038041	     -3.52043235	     16.49387422	     -1.47946719	     -6.61252916	    -16.14309814	     19.73064094	     -2.48948522	      7.42092575	      3.82050037	      4.65652236
      0.06000000	    -13.14283862	     -1.94460867	     -3.74285903	     -0.78603139	      0.97833553	      0.23659054	     16.74987719	      3.01534238	     -3.24686083	    -16.08841543	     17.63663906	     -3.54161024	     16.59709232	     -1.50667361	     -6.48217275	    -16.21674771	     19.74360412	     -2.49376852	      7.48987439	      3.83495250	      4.57418820
      0.07000000	    -13.21350436	     -1.97511450	     -3.67565503	     -0.78629647	      0.97819396	      0.23654475	     16.84868796	      3.03819331	     -3.30386357	    -16.11197150	     17.61756297	     -3.56244897	     16.73257665	     -1.53156233	     -6.40711966	    -16.28718868	     19.75630338	     -2.49725212	      7.60271875	      3.84006042	      4.53107258
      0.08000000	    -13.21473289	     -1.98945128	     -3.63460524	     -0.78652044	      0.97816836	      0.23653104	     16.86575107	      3.04840855	     -3.31964605	    -16.12069631	     17.62696335	     -3.56745189	     16.77368166	     -1.54125830	     -6.36815732	    -16.32817819	     19.75547395	     -2.49536896	      7.63598175	      3.82536700	      4.53934225
      0.09000000	    -13.27998874	     -2.02641691	     -3.54953908	     -0.78680305	      0.97803476	      0.23644469	     16.95616206	      3.06998029	     -3.41332138	    -16.13817808	     17.62205203	     -3.57999458	     16.90175446	     -1.56553799	     -6.27362180	    -16.38791918	     19.77364226	     -2.48794494	      7.74736844	      3.83731876	      4.46123751
      0.10000000	    -13.26269448	     -2.03402741	     -3.52974829	     -0.78700389	      0.97804386	      0.23643964	     16.95490336	      3.07633088	     -3.40886476	    -16.14985838	     17.62113169	     -3.58007301	     16.90090248	     -1.57174028	     -6.27282348	    -16.39122904	     19.77311393	     -2.48800860	      7.76825797	      3.82484015	      4.46393924
      0.11000000	    -13.31187189	     -2.06040518	     -3.44989697	     -0.78732530	      0.97792691	      0.23632878	     17.04113164	      3.08374763	     -3.50031706	    -16.18668118	     17.63586878	     -3.59325428	     17.01590380	     -1.58212215	     -6.17083669	    -16.45603177	     19.78443994	     -2.48075705	      7.86055115	      3.82990521	      4.38500215
      0.12000000	    -13.29277955	     -2.06577410	     -3.43970287	     -0.78754296	      0.97793646	      0.23631714	     17.03851618	      3.08795407	     -3.49710914	    -16.19585889	     17.63427009	     -3.59320245	     17.01365722	     -1.58684401	     -6.16924770	    -16.46174997	     19.78384626	     -2.48091374	      7.88395779	      3.81829049	      4.38774031
      0.13000000	    -13.28658492	     -2.06490319	     -3.41644306	     -0.78783158	      0.97791413	      0.23627150	     17.06433914	      3.08036385	     -3.50917541	    -16.22612882	     17.63360252	     -3.59825612	     17.04722717	     -1.58029856	     -6.13335616	    -16.50046902	     19.78752331	     -2.48098376	      7.91616300	      3.79785091	      4.37669591
      0.14000000	    -13.26667161	     -2.06974720	     -3.41374281	     -0.78805697	      0.97792434	      0.23625904	     17.06133250	      3.08402072	     -3.50940074	    -16.23467390	     17.63375254	     -3.59864971	     17.04255424	     -1.58558604	     -6.13215020	    -16.50478909	     19.78734906	     -2.48120404	      7.94413494	      3.78718611	      4.37451019
      0.15000000	    -13.24573875	     -2.07344189	     -3.41494856	     -0.78828813	      0.97793594	      0.23624360	     17.05827482	      3.08631628	     -3.50977934	    -16.24396504	     17.63399508	     -3.59922266	     17.03777283	     -1.58984506	     -6.12930695	    -16.51153985	     19.78766031	     -2.48150559	      7.97246904	      3.77661639	      4.37096033
      0.16000000	    -13.22401025	     -2.07634637	     -3.41920165	     -0.78852168	      0.97794970	      0.23622712	     17.05494014	      3.08780641	     -3.50998794	    -16.25368388	     17.63434756	     -3.59992792	     17.03269478	     -1.59343091	     -6.12533722	    -16.52003050	     19.78849854	     -2.48193628	      8.00165061	      3.76566935	      4.36662473
      0.17000000	    -13.20187343	     -2.07878573	     -3.42518263	     -0.78875762	      0.97796550	      0.23620605	     17.05130916	      3.08864107	     -3.50974470	    -16.26314658	     17.63481625	     -3.60071938	     17.02748461	     -1.59621942	     -6.12078327	    -16.52924583	     19.78991888	     -2.48252753	      8.03166816	      3.75476888	      4.36213731
      0.18000000	    -13.17966737	     -2.08111897	     -3.43135482	     -0.78899575	      0.97798294	      0.23617566	     17.04727209	      3.08885448	     -3.50884219	    -16.27175555	     17.63534436	     -3.60154691	     17.02213880	     -1.59814971	     -6.11623647	    -16.53813041	     19.79191754	     -2.48329854	      8.06286190	      3.74431661	      4.35796812
      0.19000000	    -13.15771072	     -2.08364192	     -3.43623590	     -0.78923628	      0.97800150	      0.23613173	     17.04273906	      3.08838702	     -3.50720692	    -16.27894856	     17.63584067	     -3.60236091	     17.01653863	     -1.59922934	     -6.11240566	    -16.54553900	     19.79440574	     -2.48425502	      8.09579531	      3.73454063	      4.35430515
      0.20000000	    -13.13627023	     -2.08650768	     -3.43856642	     -0.78947822	      0.97802119	      0.23607110	     17.03755818	      3.08709493	     -3.50491979	    -16.28422818	     17.63620366	     -3.60310795	     17.01038868	     -1.59944446	     -6.11009514	    -16.55038006	     19.79719662	     -2.48539251	      8.13138764	      3.72551490	      4.35108776
      0.21000000	    -13.13800828	     -2.07622347	     -3.43431676	     -0.78967520	      0.97801619	      0.23599584	     17.03860070	      3.07248076	     -3.49905883	    -16.25694804	     17.64214774	     -3.60751331	     17.00878516	     -1.58401782	     -6.11573851	    -16.51666182	     19.81654621	     -2.49367410	      8.20842011	      3.69987515	      4.33312028
      0.22000000	    -13.11542980	     -2.08059658	     -3.43159057	     -0.78993277	      0.97803902	      0.23588638	     17.03335458	      3.06912692	     -3.49577421	    -16.26348028	     17.64103741	     -3.60789819	     17.00223569	     -1.58235252	     -6.11517054	    -16.52103820	     19.81507347	     -2.49469407	      8.24423865	      3.69726988	      4.33349723
      0.23000000	    -13.11734074	     -2.07312018	     -3.42268820	     -0.79012824	      0.97804139	      0.23577648	     17.03152006	      3.05441492	     -3.49783059	    -16.23064569	     17.63938143	     -3.60882379	     16.99634839	     -1.56792022	     -6.13070550	    -16.47737613	     19.80891508	     -2.50219617	      8.32620866	      3.67714628	      4.32258946
      0.24000000	    -13.09387548	     -2.07726583	     -3.41749801	     -0.79039461	      0.97806564	      0.23563783	     17.02538134	      3.04876399	     -3.49409630	    -16.23694921	     17.63779989	     -3.60883853	     16.98946816	     -1.56393017	     -6.13084287	    -16.48131901	     19.80653180	     -2.50320915	      8.36324458	      3.67739237	      4.32347262
